<svg width="46" height="41" viewBox="0 0 46 41" fill="none" xmlns="http://www.w3.org/2000/svg">
<path d="M36.4731 20.3475C36.3704 20.3154 36.2716 20.3072 36.1759 20.3231C35.9699 20.3571 35.8016 20.4662 35.6697 20.6508L34.4019 22.4206C34.2835 22.5867 34.241 22.7723 34.275 22.9781L35.2718 29.0054C35.4446 30.0498 35.2214 31.0046 34.6003 31.8715C33.9798 32.738 33.1472 33.2577 32.103 33.4304L12.3587 36.6958C11.3144 36.8686 10.3589 36.6446 9.49244 36.0241C8.62575 35.4032 8.10636 34.5712 7.93362 33.5268L4.66822 13.7829C4.49554 12.7387 4.71933 11.7834 5.33999 10.9167C5.96051 10.0501 6.79299 9.53057 7.8373 9.35785L27.5818 6.09235C27.9299 6.03478 28.2937 6.02338 28.6732 6.05821C28.7734 6.07392 28.8472 6.07819 28.8941 6.07044C29.1001 6.03637 29.269 5.92739 29.401 5.74307L30.3715 4.38791C30.5298 4.16694 30.5633 3.92555 30.471 3.66474C30.3817 3.41941 30.209 3.26095 29.9534 3.18957C29.0343 2.93579 28.0755 2.89053 27.0788 3.05537L7.335 6.32076C5.45235 6.63212 3.95304 7.56682 2.83726 9.12481C1.72166 10.6829 1.31943 12.4031 1.63081 14.2858L4.89628 34.0302C5.20761 35.9126 6.14229 37.4118 7.7002 38.5276C9.25826 39.6438 10.9787 40.0459 12.8613 39.7346L32.6056 36.4691C34.488 36.1578 35.9875 35.2231 37.1032 33.6647C38.2191 32.1067 38.6219 30.3864 38.3105 28.5039L37.0623 20.9569C37.0073 20.625 36.8104 20.422 36.4731 20.3475Z" fill="#333333"/>
<path d="M40.1772 5.74065L37.1347 3.56173C36.6922 3.24492 36.2097 3.1297 35.6874 3.21607C35.1659 3.30233 34.7458 3.56685 34.4292 4.00919L21.6143 21.9028L14.3411 16.6936C13.8985 16.3766 13.4161 16.2616 12.8942 16.3479C12.3722 16.4342 11.9527 16.6984 11.6357 17.1411L9.45706 20.1832C9.14017 20.6256 9.02475 21.1081 9.11112 21.6303C9.19745 22.1523 9.46203 22.5717 9.90454 22.8888L21.7965 31.4054C22.2391 31.7225 22.7215 31.8374 23.2434 31.7511C23.7653 31.6648 24.1849 31.4008 24.5019 30.958L40.6244 8.44597C40.941 8.00361 41.0567 7.52105 40.9703 6.99907C40.884 6.47708 40.6197 6.05746 40.1772 5.74065Z" fill="#333333"/>
</svg>
